<svg xmlns="http://www.w3.org/2000/svg" width="102" height="24" viewBox="0 0 102 24" fill="none"><path d="M0.585876 17.7991L0.585878 5.93311L6.84849 9.22923V14.5359L11.8586 17.2058L16.8687 14.5359V9.22923L23.1314 5.93311V17.7991L11.8586 23.7321L0.585876 17.7991Z" fill="white"></path><path fill-rule="evenodd" clip-rule="evenodd" d="M3.71719 7.5811L0.585876 5.93301L11.8586 0L23.1314 5.93301L20 7.5811V16.3158L11.8586 20.7656L3.71719 16.3158L3.71719 7.5811ZM19.6608 7.75964L16.8687 9.22914V9.19617L11.8586 6.52629L6.84849 9.19617V9.22914L4.05641 7.75964V16.1332L11.8586 20.3976L19.6608 16.1332V7.75964Z" fill="#DEE0E3"></path><path d="M29.1334 16.8615V6.89404H31.1174V15.1528H35.9272V16.8615H29.1334Z" fill="#DEE0E3"></path><path d="M40.2106 17.0605C39.4691 17.0605 38.8028 16.9181 38.2116 16.6333C37.6204 16.3485 37.1545 15.9356 36.8138 15.3945C36.4731 14.8534 36.3027 14.2031 36.3027 13.4437V13.2159C36.3027 12.4564 36.4731 11.8062 36.8138 11.2651C37.1545 10.724 37.6204 10.3111 38.2116 10.0263C38.8028 9.74148 39.4691 9.59912 40.2106 9.59912C40.9521 9.59912 41.6185 9.74148 42.2097 10.0263C42.8009 10.3111 43.2668 10.724 43.6075 11.2651C43.9481 11.8062 44.1185 12.4564 44.1185 13.2159V13.4437C44.1185 14.2031 43.9481 14.8534 43.6075 15.3945C43.2668 15.9356 42.8009 16.3485 42.2097 16.6333C41.6185 16.9181 40.9521 17.0605 40.2106 17.0605ZM40.2106 15.4657C40.7918 15.4657 41.2728 15.2901 41.6535 14.9388C42.0343 14.5781 42.2247 14.0655 42.2247 13.401V13.2586C42.2247 12.5941 42.0343 12.0862 41.6535 11.735C41.2828 11.3743 40.8018 11.1939 40.2106 11.1939C39.6295 11.1939 39.1485 11.3743 38.7677 11.735C38.3869 12.0862 38.1966 12.5941 38.1966 13.2586V13.401C38.1966 14.0655 38.3869 14.5781 38.7677 14.9388C39.1485 15.2901 39.6295 15.4657 40.2106 15.4657Z" fill="#DEE0E3"></path><path d="M44.8295 13.3583V13.1305C44.8295 12.39 44.9848 11.7587 45.2955 11.2366C45.6061 10.705 46.0169 10.3016 46.5279 10.0263C47.049 9.74148 47.6151 9.59912 48.2263 9.59912C48.9077 9.59912 49.4238 9.71306 49.7745 9.94087C50.1252 10.1687 50.3807 10.406 50.541 10.6528H50.8116V9.79845H52.6753V18.1142C52.6753 18.5983 52.525 18.9827 52.2244 19.2676C51.9238 19.5618 51.523 19.709 51.022 19.709H46.0319V18.1427H50.3607C50.6412 18.1427 50.7815 18.0003 50.7815 17.7155V15.8786H50.5109C50.4107 16.0305 50.2705 16.1871 50.0901 16.3485C49.9097 16.5004 49.6693 16.6285 49.3687 16.733C49.0681 16.8374 48.6873 16.8896 48.2263 16.8896C47.6151 16.8896 47.049 16.7519 46.5279 16.4766C46.0169 16.1919 45.6061 15.7884 45.2955 15.2663C44.9848 14.7347 44.8295 14.0987 44.8295 13.3583ZM48.7675 15.3233C49.3486 15.3233 49.8346 15.1477 50.2254 14.7964C50.6162 14.4452 50.8116 13.9516 50.8116 13.3156V13.1732C50.8116 12.5276 50.6162 12.034 50.2254 11.6923C49.8446 11.3411 49.3587 11.1654 48.7675 11.1654C48.1863 11.1654 47.7003 11.3411 47.3095 11.6923C46.9187 12.034 46.7233 12.5276 46.7233 13.1732V13.3156C46.7233 13.9516 46.9187 14.4452 47.3095 14.7964C47.7003 15.1477 48.1863 15.3233 48.7675 15.3233Z" fill="#DEE0E3"></path><path d="M57.6458 17.0605C56.9042 17.0605 56.2379 16.9181 55.6467 16.6333C55.0555 16.3485 54.5896 15.9356 54.2489 15.3945C53.9082 14.8534 53.7379 14.2031 53.7379 13.4437V13.2159C53.7379 12.4564 53.9082 11.8062 54.2489 11.2651C54.5896 10.724 55.0555 10.3111 55.6467 10.0263C56.2379 9.74148 56.9042 9.59912 57.6458 9.59912C58.3872 9.59912 59.0536 9.74148 59.6448 10.0263C60.236 10.3111 60.7019 10.724 61.0426 11.2651C61.3833 11.8062 61.5536 12.4564 61.5536 13.2159V13.4437C61.5536 14.2031 61.3833 14.8534 61.0426 15.3945C60.7019 15.9356 60.236 16.3485 59.6448 16.6333C59.0536 16.9181 58.3872 17.0605 57.6458 17.0605ZM57.6458 15.4657C58.2269 15.4657 58.7079 15.2901 59.0886 14.9388C59.4694 14.5781 59.6598 14.0655 59.6598 13.401V13.2586C59.6598 12.5941 59.4694 12.0862 59.0886 11.735C58.7179 11.3743 58.237 11.1939 57.6458 11.1939C57.0646 11.1939 56.5836 11.3743 56.2028 11.735C55.8221 12.0862 55.6317 12.5941 55.6317 13.2586V13.401C55.6317 14.0655 55.8221 14.5781 56.2028 14.9388C56.5836 15.2901 57.0646 15.4657 57.6458 15.4657Z" fill="#DEE0E3"></path><path d="M62.6254 16.8612V9.79848H64.5192V16.8612H62.6254ZM63.5723 8.97263C63.2316 8.97263 62.941 8.86823 62.7005 8.65937C62.4701 8.4505 62.3549 8.1752 62.3549 7.83352C62.3549 7.49177 62.4701 7.21646 62.7005 7.0076C62.941 6.7988 63.2316 6.69434 63.5723 6.69434C63.923 6.69434 64.2136 6.7988 64.4441 7.0076C64.6745 7.21646 64.7897 7.49177 64.7897 7.83352C64.7897 8.1752 64.6745 8.4505 64.4441 8.65937C64.2136 8.86823 63.923 8.97263 63.5723 8.97263Z" fill="#DEE0E3"></path><path d="M65.9415 19.709V9.79845H67.8053V10.6528H68.076C68.246 10.3775 68.5113 10.1355 68.8727 9.92659C69.2333 9.70826 69.7493 9.59912 70.4207 9.59912C71.022 9.59912 71.578 9.74148 72.0887 10.0263C72.6 10.3016 73.0107 10.7098 73.3213 11.2509C73.632 11.792 73.7873 12.447 73.7873 13.2159V13.4437C73.7873 14.2126 73.632 14.8676 73.3213 15.4087C73.0107 15.9498 72.6 16.3628 72.0887 16.6475C71.578 16.9228 71.022 17.0605 70.4207 17.0605C69.9693 17.0605 69.5887 17.0082 69.278 16.9038C68.9773 16.8089 68.732 16.6855 68.542 16.5336C68.3613 16.3722 68.216 16.2109 68.106 16.0495H67.8353V19.709H65.9415ZM69.8493 15.4942C70.4407 15.4942 70.9267 15.3185 71.3073 14.9673C71.698 14.6066 71.8933 14.0845 71.8933 13.401V13.2586C71.8933 12.5751 71.698 12.0577 71.3073 11.7065C70.9167 11.3458 70.4307 11.1654 69.8493 11.1654C69.268 11.1654 68.782 11.3458 68.3913 11.7065C68.0007 12.0577 67.8053 12.5751 67.8053 13.2586V13.401C67.8053 14.0845 68.0007 14.6066 68.3913 14.9673C68.782 15.3185 69.268 15.4942 69.8493 15.4942Z" fill="#DEE0E3"></path><path d="M77.946 17.0605C76.974 17.0605 76.1773 16.8611 75.556 16.4624C74.9353 16.0637 74.5593 15.4942 74.4286 14.7537L76.1727 14.3266C76.2427 14.6588 76.358 14.9199 76.518 15.1097C76.6887 15.2996 76.894 15.4372 77.1347 15.5226C77.3847 15.5986 77.6553 15.6366 77.946 15.6366C78.3867 15.6366 78.7127 15.5653 78.9233 15.423C79.1333 15.2711 79.2387 15.086 79.2387 14.8676C79.2387 14.6493 79.1387 14.4832 78.938 14.3692C78.738 14.2458 78.4173 14.1462 77.976 14.0703L77.5553 13.999C77.034 13.9041 76.558 13.7759 76.1273 13.6146C75.6967 13.4437 75.3507 13.2111 75.09 12.9169C74.83 12.6226 74.6993 12.2428 74.6993 11.7777C74.6993 11.0752 74.97 10.5389 75.5113 10.1687C76.052 9.78897 76.764 9.59912 77.6453 9.59912C78.4773 9.59912 79.1687 9.77476 79.7193 10.126C80.2707 10.4772 80.6313 10.9376 80.802 11.5072L79.0433 12.0198C78.9633 11.6591 78.798 11.4027 78.5473 11.2509C78.3067 11.099 78.006 11.023 77.6453 11.023C77.2847 11.023 77.0093 11.0847 76.8187 11.2081C76.6287 11.3221 76.5333 11.4834 76.5333 11.6923C76.5333 11.9201 76.6333 12.091 76.834 12.2049C77.034 12.3093 77.3047 12.39 77.6453 12.447L78.066 12.5182C78.6273 12.6131 79.1333 12.7412 79.5847 12.9026C80.0453 13.0545 80.406 13.2776 80.6667 13.5719C80.9373 13.8567 81.0727 14.2458 81.0727 14.7395C81.0727 15.4799 80.7867 16.0542 80.2153 16.4624C79.6547 16.8611 78.898 17.0605 77.946 17.0605Z" fill="#DEE0E3"></path><path d="M84.896 16.9749C84.3154 16.9749 83.804 16.8515 83.3634 16.6047C82.9327 16.3484 82.5967 15.9972 82.356 15.551C82.116 15.1049 81.9954 14.5922 81.9954 14.0132V9.79834H83.8894V13.8708C83.8894 14.4024 84.0247 14.8011 84.2954 15.0668C84.5754 15.3327 84.9714 15.4656 85.4827 15.4656C86.0634 15.4656 86.5147 15.2852 86.8354 14.9245C87.156 14.5543 87.316 14.0417 87.316 13.3867V9.79834H89.21V16.861H87.346V15.9355H87.076C86.9554 16.1728 86.73 16.4054 86.3994 16.6332C86.0687 16.861 85.5674 16.9749 84.896 16.9749Z" fill="#DEE0E3"></path><path d="M90.6414 16.8611V9.79844H92.5047V10.5674H92.7753C92.9053 10.33 93.1214 10.126 93.4214 9.95508C93.722 9.77476 94.118 9.68457 94.6094 9.68457C95.14 9.68457 95.566 9.78423 95.8867 9.98356C96.2074 10.1734 96.4527 10.425 96.6234 10.7382H96.8933C97.064 10.4345 97.3047 10.1829 97.6154 9.98356C97.926 9.78423 98.3667 9.68457 98.938 9.68457C99.3987 9.68457 99.8147 9.7795 100.185 9.96935C100.566 10.1497 100.867 10.4297 101.087 10.8095C101.317 11.1796 101.433 11.6495 101.433 12.2192V16.8611H99.5387V12.3473C99.5387 11.9581 99.434 11.6685 99.2234 11.4787C99.0127 11.2794 98.7174 11.1796 98.3367 11.1796C97.906 11.1796 97.57 11.3126 97.3294 11.5784C97.0994 11.8347 96.984 12.2049 96.984 12.6891V16.8611H95.09V12.3473C95.09 11.9581 94.9847 11.6685 94.7747 11.4787C94.564 11.2794 94.2687 11.1796 93.8873 11.1796C93.4567 11.1796 93.1214 11.3126 92.8807 11.5784C92.65 11.8347 92.5347 12.2049 92.5347 12.6891V16.8611H90.6414Z" fill="#DEE0E3"></path></svg>