<svg xmlns="http://www.w3.org/2000/svg" width="102" height="24" viewBox="0 0 102 24" fill="none"><path d="M29.9174 16.9477H37.1265V14.8404H32.4796V6.90283H29.9174V16.9477Z" fill="#DEE0E3"></path><path d="M41.3977 15.5429C40.3699 15.5429 39.8343 14.6719 39.8343 13.3653C39.8343 12.0588 40.3699 11.1737 41.3977 11.1737C42.4256 11.1737 42.9757 12.0588 42.9757 13.3653C42.9757 14.6719 42.4256 15.5429 41.3977 15.5429ZM41.4122 17.1725C43.8008 17.1725 45.3642 15.5288 45.3642 13.3653C45.3642 11.2018 43.8008 9.55811 41.4122 9.55811C39.0381 9.55811 37.4457 11.2018 37.4457 13.3653C37.4457 15.5288 39.0381 17.1725 41.4122 17.1725Z" fill="#DEE0E3"></path><path d="M49.4986 19.4343C50.5988 19.4343 51.5687 19.1955 52.2201 18.6335C52.8137 18.1137 53.2045 17.327 53.2045 16.2452V9.75468H50.9462V10.5274H50.9173C50.483 9.92326 49.8171 9.54395 48.8327 9.54395C46.9942 9.54395 45.7203 11.0331 45.7203 13.1404C45.7203 15.3461 47.2693 16.5543 48.9341 16.5543C49.8316 16.5543 50.3961 16.2031 50.8304 15.7254H50.8883V16.4419C50.8883 17.3129 50.4685 17.8187 49.4697 17.8187C48.688 17.8187 48.2971 17.4956 48.1668 17.1162H45.8796C46.1112 18.6195 47.4575 19.4343 49.4986 19.4343ZM49.4842 14.8544C48.6011 14.8544 48.0221 14.1519 48.0221 13.0702C48.0221 11.9744 48.6011 11.2719 49.4842 11.2719C50.4685 11.2719 50.9897 12.0868 50.9897 13.0561C50.9897 14.0677 50.512 14.8544 49.4842 14.8544Z" fill="#DEE0E3"></path><path d="M57.848 15.5429C56.8202 15.5429 56.2846 14.6719 56.2846 13.3653C56.2846 12.0588 56.8202 11.1737 57.848 11.1737C58.8758 11.1737 59.4259 12.0588 59.4259 13.3653C59.4259 14.6719 58.8758 15.5429 57.848 15.5429ZM57.8625 17.1725C60.251 17.1725 61.8142 15.5288 61.8142 13.3653C61.8142 11.2018 60.251 9.55811 57.8625 9.55811C55.4884 9.55811 53.896 11.2018 53.896 13.3653C53.896 15.5288 55.4884 17.1725 57.8625 17.1725Z" fill="#DEE0E3"></path><path d="M62.5036 16.9477H64.8632V9.75473H62.5036V16.9477ZM62.5036 8.75727H64.8632V6.90283H62.5036V8.75727Z" fill="#DEE0E3"></path><path d="M65.8868 19.3219H68.2464V16.2031H68.2754C68.7386 16.8072 69.419 17.1724 70.3744 17.1724C72.3142 17.1724 73.6026 15.6833 73.6026 13.3512C73.6026 11.1877 72.4011 9.54395 70.4323 9.54395C69.419 9.54395 68.6952 9.97946 68.1885 10.6257H68.1451V9.75468H65.8868V19.3219ZM69.7664 15.4023C68.7531 15.4023 68.174 14.6015 68.174 13.4355C68.174 12.2694 68.6952 11.3843 69.723 11.3843C70.7363 11.3843 71.214 12.1992 71.214 13.4355C71.214 14.6577 70.6639 15.4023 69.7664 15.4023Z" fill="#DEE0E3"></path><path d="M77.4442 17.1724C79.384 17.1724 80.8172 16.3576 80.8172 14.7841C80.8172 12.9437 79.2827 12.6206 77.9798 12.4099C77.0389 12.2413 76.1993 12.1711 76.1993 11.6653C76.1993 11.2158 76.648 11.005 77.2271 11.005C77.8785 11.005 78.3273 11.2017 78.4141 11.8479H80.5855C80.4697 10.429 79.3406 9.54395 77.2416 9.54395C75.4899 9.54395 74.0423 10.3307 74.0423 11.8479C74.0423 13.5338 75.4176 13.871 76.7059 14.0817C77.6903 14.2503 78.5878 14.3205 78.5878 14.9668C78.5878 15.4304 78.1391 15.6833 77.4297 15.6833C76.648 15.6833 76.1558 15.332 76.069 14.6156H73.8397C73.912 16.2031 75.2728 17.1724 77.4442 17.1724Z" fill="#DEE0E3"></path><path d="M84.0225 17.1586C85.0503 17.1586 85.7017 16.7652 86.2373 16.0628H86.2807V16.9479H88.539V9.75488H86.1794V13.7728C86.1794 14.6298 85.6872 15.2199 84.8765 15.2199C84.1238 15.2199 83.7619 14.7843 83.7619 13.9976V9.75488H81.4167V14.4753C81.4167 16.0768 82.3143 17.1586 84.0225 17.1586Z" fill="#DEE0E3"></path><path d="M89.5656 16.9477H91.9252V12.9157C91.9252 12.0587 92.3595 11.4546 93.0978 11.4546C93.8071 11.4546 94.1401 11.9041 94.1401 12.6768V16.9477H96.4997V12.9157C96.4997 12.0587 96.9195 11.4546 97.6723 11.4546C98.3816 11.4546 98.7146 11.9041 98.7146 12.6768V16.9477H101.074V12.2694C101.074 10.6538 100.235 9.54395 98.5553 9.54395C97.5999 9.54395 96.8037 9.93731 96.2246 10.8083H96.1957C95.8193 10.0357 95.081 9.54395 94.1111 9.54395C93.0399 9.54395 92.3306 10.0357 91.8673 10.7802H91.8239V9.75468H89.5656V16.9477Z" fill="#DEE0E3"></path><path d="M15.521 1.15693L13.1487 0.540039L11.1496 7.78076L9.34471 1.24379L6.97236 1.86068L8.92242 8.9234L4.06528 4.20969L2.32862 5.89506L7.6563 11.0655L1.02152 9.34018L0.385864 11.6424L7.63519 13.5275C7.55219 13.1801 7.50828 12.8181 7.50828 12.4462C7.50828 9.81344 9.70746 7.6792 12.4203 7.6792C15.1331 7.6792 17.3323 9.81344 17.3323 12.4462C17.3323 12.8157 17.2889 13.1755 17.207 13.5209L23.7953 15.234L24.4309 12.9318L17.1527 11.0392L23.788 9.31378L23.1523 7.01153L15.8744 8.90402L20.7316 4.19033L18.9949 2.50495L13.7411 7.60363L15.521 1.15693Z" fill="white"></path><path d="M17.2005 13.5479C16.9972 14.3823 16.5678 15.132 15.9786 15.7327L20.7515 20.3647L22.4882 18.6793L17.2005 13.5479Z" fill="white"></path><path d="M15.9303 15.7812C15.334 16.3723 14.5805 16.8134 13.7354 17.0407L15.4722 23.331L17.8445 22.7141L15.9303 15.7812Z" fill="white"></path><path d="M13.6468 17.0637C13.2548 17.1615 12.8438 17.2134 12.4203 17.2134C11.9666 17.2134 11.5273 17.1537 11.1102 17.042L9.37183 23.3381L11.7441 23.9549L13.6468 17.0637Z" fill="white"></path><path d="M11.0263 17.0188C10.1942 16.7802 9.45405 16.3335 8.86994 15.7407L4.08527 20.3841L5.82192 22.0695L11.0263 17.0188Z" fill="white"></path><path d="M8.83 15.6998C8.2559 15.1033 7.83772 14.3636 7.63867 13.542L1.02887 15.2608L1.66453 17.563L8.83 15.6998Z" fill="white"></path></svg>