<svg xmlns="http://www.w3.org/2000/svg" width="39" height="33" viewBox="0 0 39 33" fill="none"><path d="M5.568 15.464V21.896C5.568 22.344 5.672 22.672 5.88 22.88C6.104 23.072 6.472 23.168 6.984 23.168H8.544V26H6.432C3.6 26 2.184 24.624 2.184 21.872V15.464H0.6V12.704H2.184V9.416H5.568V12.704H8.544V15.464H5.568ZM16.1687 12.488C17.1607 12.488 18.0327 12.688 18.7847 13.088C19.5367 13.472 20.1287 13.976 20.5607 14.6V12.704H23.9447V26.096C23.9447 27.328 23.6967 28.424 23.2007 29.384C22.7047 30.36 21.9607 31.128 20.9687 31.688C19.9767 32.264 18.7767 32.552 17.3687 32.552C15.4807 32.552 13.9287 32.112 12.7127 31.232C11.5127 30.352 10.8327 29.152 10.6727 27.632H14.0087C14.1847 28.24 14.5607 28.72 15.1367 29.072C15.7287 29.44 16.4407 29.624 17.2727 29.624C18.2487 29.624 19.0407 29.328 19.6487 28.736C20.2567 28.16 20.5607 27.28 20.5607 26.096V24.032C20.1287 24.656 19.5287 25.176 18.7607 25.592C18.0087 26.008 17.1447 26.216 16.1687 26.216C15.0487 26.216 14.0247 25.928 13.0967 25.352C12.1687 24.776 11.4327 23.968 10.8887 22.928C10.3607 21.872 10.0967 20.664 10.0967 19.304C10.0967 17.96 10.3607 16.768 10.8887 15.728C11.4327 14.688 12.1607 13.888 13.0727 13.328C14.0007 12.768 15.0327 12.488 16.1687 12.488ZM20.5607 19.352C20.5607 18.536 20.4007 17.84 20.0807 17.264C19.7607 16.672 19.3287 16.224 18.7847 15.92C18.2407 15.6 17.6567 15.44 17.0327 15.44C16.4087 15.44 15.8327 15.592 15.3047 15.896C14.7767 16.2 14.3447 16.648 14.0087 17.24C13.6887 17.816 13.5287 18.504 13.5287 19.304C13.5287 20.104 13.6887 20.808 14.0087 21.416C14.3447 22.008 14.7767 22.464 15.3047 22.784C15.8487 23.104 16.4247 23.264 17.0327 23.264C17.6567 23.264 18.2407 23.112 18.7847 22.808C19.3287 22.488 19.7607 22.04 20.0807 21.464C20.4007 20.872 20.5607 20.168 20.5607 19.352ZM32.3143 26.216C31.2263 26.216 30.2503 26.024 29.3863 25.64C28.5223 25.24 27.8343 24.704 27.3223 24.032C26.8263 23.36 26.5543 22.616 26.5063 21.8H29.8903C29.9543 22.312 30.2023 22.736 30.6343 23.072C31.0823 23.408 31.6343 23.576 32.2903 23.576C32.9303 23.576 33.4263 23.448 33.7783 23.192C34.1463 22.936 34.3303 22.608 34.3303 22.208C34.3303 21.776 34.1063 21.456 33.6583 21.248C33.2263 21.024 32.5303 20.784 31.5703 20.528C30.5783 20.288 29.7623 20.04 29.1223 19.784C28.4983 19.528 27.9543 19.136 27.4903 18.608C27.0423 18.08 26.8183 17.368 26.8183 16.472C26.8183 15.736 27.0263 15.064 27.4423 14.456C27.8743 13.848 28.4823 13.368 29.2663 13.016C30.0663 12.664 31.0023 12.488 32.0743 12.488C33.6583 12.488 34.9223 12.888 35.8663 13.688C36.8103 14.472 37.3303 15.536 37.4263 16.88H34.2103C34.1623 16.352 33.9383 15.936 33.5383 15.632C33.1543 15.312 32.6343 15.152 31.9783 15.152C31.3703 15.152 30.8983 15.264 30.5623 15.488C30.2423 15.712 30.0823 16.024 30.0823 16.424C30.0823 16.872 30.3063 17.216 30.7543 17.456C31.2023 17.68 31.8983 17.912 32.8423 18.152C33.8023 18.392 34.5943 18.64 35.2183 18.896C35.8423 19.152 36.3783 19.552 36.8263 20.096C37.2903 20.624 37.5303 21.328 37.5463 22.208C37.5463 22.976 37.3303 23.664 36.8983 24.272C36.4823 24.88 35.8743 25.36 35.0743 25.712C34.2903 26.048 33.3703 26.216 32.3143 26.216Z" fill="white"></path><mask id="mask0_4202_407" style="mask-type:alpha" maskUnits="userSpaceOnUse" x="1" y="0" width="35" height="10"><path d="M1 0H36V10H18V7H1V0Z" fill="#C4C4C4"></path></mask><g mask="url(#mask0_4202_407)"><circle cx="18" cy="19" r="18" stroke="white" stroke-width="2"></circle></g></svg>