<svg xmlns="http://www.w3.org/2000/svg" width="102" height="24" viewBox="0 0 102 24" fill="none"><path d="M31.1161 16.4711H38.2873V14.3638H33.6649V6.42627H31.1161V16.4711Z" fill="#DEE0E3"></path><path d="M42.5359 15.0663C41.5135 15.0663 40.9807 14.1953 40.9807 12.8888C40.9807 11.5822 41.5135 10.6972 42.5359 10.6972C43.5583 10.6972 44.1055 11.5822 44.1055 12.8888C44.1055 14.1953 43.5583 15.0663 42.5359 15.0663ZM42.5503 16.696C44.9263 16.696 46.4815 15.0523 46.4815 12.8888C46.4815 10.7253 44.9263 9.08154 42.5503 9.08154C40.1887 9.08154 38.6047 10.7253 38.6047 12.8888C38.6047 15.0523 40.1887 16.696 42.5503 16.696Z" fill="#DEE0E3"></path><path d="M50.5942 18.9577C51.6886 18.9577 52.6534 18.7189 53.3014 18.1569C53.8918 17.6371 54.2806 16.8504 54.2806 15.7687V9.27811H52.0342V10.0508H52.0054C51.5734 9.4467 50.911 9.06738 49.9318 9.06738C48.103 9.06738 46.8358 10.5566 46.8358 12.6639C46.8358 14.8695 48.3766 16.0777 50.0326 16.0777C50.9254 16.0777 51.487 15.7265 51.919 15.2488H51.9766V15.9653C51.9766 16.8364 51.559 17.3421 50.5654 17.3421C49.7878 17.3421 49.399 17.019 49.2694 16.6397H46.9942C47.2246 18.1429 48.5638 18.9577 50.5942 18.9577ZM50.5798 14.3778C49.7014 14.3778 49.1254 13.6754 49.1254 12.5936C49.1254 11.4978 49.7014 10.7954 50.5798 10.7954C51.559 10.7954 52.0774 11.6102 52.0774 12.5796C52.0774 13.5911 51.6022 14.3778 50.5798 14.3778Z" fill="#DEE0E3"></path><path d="M58.8996 15.0663C57.8772 15.0663 57.3444 14.1953 57.3444 12.8888C57.3444 11.5822 57.8772 10.6972 58.8996 10.6972C59.922 10.6972 60.4692 11.5822 60.4692 12.8888C60.4692 14.1953 59.922 15.0663 58.8996 15.0663ZM58.914 16.696C61.29 16.696 62.8452 15.0523 62.8452 12.8888C62.8452 10.7253 61.29 9.08154 58.914 9.08154C56.5524 9.08154 54.9684 10.7253 54.9684 12.8888C54.9684 15.0523 56.5524 16.696 58.914 16.696Z" fill="#DEE0E3"></path><path d="M63.5304 16.4711H65.8776V9.27817H63.5304V16.4711ZM63.5304 8.28071H65.8776V6.42627H63.5304V8.28071Z" fill="#DEE0E3"></path><path d="M66.8964 18.8453H69.2436V15.7265H69.2724C69.7332 16.3306 70.41 16.6959 71.3604 16.6959C73.29 16.6959 74.5716 15.2067 74.5716 12.8746C74.5716 10.7111 73.3764 9.06738 71.418 9.06738C70.41 9.06738 69.69 9.50289 69.186 10.1491H69.1428V9.27811H66.8964V18.8453ZM70.7556 14.9257C69.7476 14.9257 69.1716 14.1249 69.1716 12.9589C69.1716 11.7928 69.69 10.9078 70.7124 10.9078C71.7204 10.9078 72.1956 11.7226 72.1956 12.9589C72.1956 14.1811 71.6484 14.9257 70.7556 14.9257Z" fill="#DEE0E3"></path><path d="M78.393 16.6959C80.3226 16.6959 81.7482 15.881 81.7482 14.3076C81.7482 12.4672 80.2218 12.1441 78.9258 11.9333C77.9898 11.7647 77.1546 11.6945 77.1546 11.1887C77.1546 10.7392 77.601 10.5285 78.177 10.5285C78.825 10.5285 79.2714 10.7251 79.3578 11.3714H81.5178C81.4026 9.95246 80.2794 9.06738 78.1914 9.06738C76.449 9.06738 75.009 9.85411 75.009 11.3714C75.009 13.0572 76.377 13.3944 77.6586 13.6051C78.6378 13.7737 79.5306 13.844 79.5306 14.4902C79.5306 14.9538 79.0842 15.2067 78.3786 15.2067C77.601 15.2067 77.1114 14.8555 77.025 14.139H74.8074C74.8794 15.7265 76.233 16.6959 78.393 16.6959Z" fill="#DEE0E3"></path><path d="M84.9366 16.6815C85.959 16.6815 86.607 16.2882 87.1398 15.5857H87.183V16.4708H89.4294V9.27783H87.0822V13.2958C87.0822 14.1528 86.5926 14.7428 85.7862 14.7428C85.0374 14.7428 84.6774 14.3073 84.6774 13.5206V9.27783H82.3446V13.9982C82.3446 15.5998 83.2374 16.6815 84.9366 16.6815Z" fill="#DEE0E3"></path><path d="M90.45 16.4711H92.7972V12.4391C92.7972 11.5821 93.2292 10.978 93.9636 10.978C94.6692 10.978 95.0004 11.4276 95.0004 12.2003V16.4711H97.3476V12.4391C97.3476 11.5821 97.7652 10.978 98.514 10.978C99.2196 10.978 99.5508 11.4276 99.5508 12.2003V16.4711H101.898V11.7928C101.898 10.1772 101.063 9.06738 99.3924 9.06738C98.442 9.06738 97.65 9.46075 97.074 10.3318H97.0452C96.6708 9.55909 95.9364 9.06738 94.9716 9.06738C93.906 9.06738 93.2004 9.55909 92.7396 10.3037H92.6964V9.27811H90.45V16.4711Z" fill="#DEE0E3"></path><path fill-rule="evenodd" clip-rule="evenodd" d="M12.4105 23.4952C19.0379 23.4952 24.4105 18.2536 24.4105 11.7879C24.4105 5.32211 19.0379 0.0805664 12.4105 0.0805664C5.78303 0.0805664 0.410461 5.32211 0.410461 11.7879C0.410461 18.2536 5.78303 23.4952 12.4105 23.4952ZM16.1541 5.53433C16.3363 4.90284 15.7081 4.52942 15.1345 4.92815L7.12633 10.494C6.50419 10.9264 6.60205 11.7879 7.27333 11.7879H9.38209V11.7719H13.492L10.1432 12.9247L8.66689 18.0414C8.48467 18.6729 9.11275 19.0463 9.68647 18.6476L17.6946 13.0818C18.3168 12.6494 18.2188 11.7879 17.5476 11.7879H14.3497L16.1541 5.53433Z" fill="white"></path></svg>