<svg xmlns="http://www.w3.org/2000/svg" width="102" height="24" viewBox="0 0 102 24" fill="none"><path d="M7.05771 18.0961C5.04031 20.0704 1.62361 20.0625 0.66942 17.4313C0.482602 16.9161 0.333235 16.3864 0.223376 15.8459C-0.225177 13.6391 0.00503692 11.3517 0.884907 9.27285C1.76477 7.1941 3.25478 5.41734 5.1665 4.16728C7.07824 2.91722 9.32583 2.25 11.625 2.25C13.9242 2.25 16.1718 2.91722 18.0835 4.16728C19.9952 5.41734 21.4852 7.1941 22.3651 9.27291C23.245 11.3517 23.4752 13.6391 23.0266 15.8459C22.9168 16.3864 22.7674 16.9161 22.5806 17.4313C21.6264 20.0625 18.2097 20.0704 16.1923 18.0961L13.0781 15.0485C12.7806 14.7574 12.8113 14.2772 12.8934 13.8734C12.9433 13.6279 12.9177 13.3734 12.8198 13.1421C12.7219 12.9109 12.5562 12.7132 12.3435 12.5742C12.1308 12.4351 11.8808 12.3609 11.625 12.3609C11.3693 12.3609 11.1192 12.4351 10.9065 12.5742C10.6938 12.7132 10.5281 12.9109 10.4302 13.1421C10.3323 13.3734 10.3067 13.6279 10.3566 13.8734C10.4387 14.2772 10.4694 14.7574 10.1719 15.0485L7.05771 18.0961Z" fill="white"></path><path d="M31.5228 14.6666H34.5V16.5H29.25V6.75H31.5228V14.6666Z" fill="#DEE0E3"></path><path d="M38.9741 16.5C38.2672 16.5 37.6293 16.3476 37.0603 16.0427C36.5 15.7378 36.056 15.3023 35.7284 14.7361C35.4095 14.1699 35.25 13.5078 35.25 12.75C35.25 12.0009 35.4138 11.3432 35.7413 10.777C36.069 10.2021 36.5172 9.76218 37.0862 9.45731C37.6552 9.15244 38.2931 9 39 9C39.7069 9 40.3448 9.15244 40.9138 9.45731C41.4828 9.76218 41.931 10.2021 42.2586 10.777C42.5862 11.3432 42.75 12.0009 42.75 12.75C42.75 13.4991 42.5819 14.1611 42.2457 14.7361C41.9181 15.3023 41.4655 15.7378 40.8879 16.0427C40.319 16.3476 39.681 16.5 38.9741 16.5ZM38.9741 14.5662C39.3965 14.5662 39.7543 14.4094 40.0474 14.0958C40.3492 13.7822 40.5 13.3336 40.5 12.75C40.5 12.1664 40.3534 11.7178 40.0603 11.4042C39.7758 11.0906 39.4224 10.9338 39 10.9338C38.569 10.9338 38.2112 11.0906 37.9267 11.4042C37.6422 11.709 37.5 12.1576 37.5 12.75C37.5 13.3336 37.6379 13.7822 37.9138 14.0958C38.1983 14.4094 38.5517 14.5662 38.9741 14.5662Z" fill="#DEE0E3"></path><path d="M46.6324 9C47.1333 9 47.5705 9.10702 47.944 9.32106C48.326 9.53504 48.6189 9.816 48.8226 10.1638V9.10702H51V16.5579C51 17.2446 50.8685 17.8644 50.6053 18.4173C50.3506 18.9792 49.9559 19.4251 49.4211 19.755C48.8948 20.085 48.2369 20.25 47.4474 20.25C46.3947 20.25 45.5416 19.9869 44.8879 19.4608C44.2343 18.9435 43.8607 18.239 43.7674 17.3472H45.9194C45.9873 17.6325 46.1486 17.8555 46.4033 18.016C46.6579 18.1854 46.972 18.2702 47.3455 18.2702C47.7954 18.2702 48.1519 18.1319 48.4151 17.8555C48.6868 17.588 48.8226 17.1555 48.8226 16.5579V15.5012C48.6104 15.8489 48.3175 16.1344 47.944 16.3573C47.5705 16.5713 47.1333 16.6783 46.6324 16.6783C46.0467 16.6783 45.5161 16.5223 45.0407 16.2102C44.5653 15.8891 44.1876 15.4387 43.9075 14.8591C43.6358 14.2705 43.5 13.5928 43.5 12.8258C43.5 12.0588 43.6358 11.3856 43.9075 10.8059C44.1876 10.2262 44.5653 9.78031 45.0407 9.46818C45.5161 9.15606 46.0467 9 46.6324 9ZM48.8226 12.8391C48.8226 12.2684 48.6698 11.818 48.3642 11.4881C48.0671 11.1582 47.702 10.9932 47.2691 10.9932C46.8362 10.9932 46.4669 11.1582 46.1613 11.4881C45.8642 11.8092 45.7156 12.2551 45.7156 12.8258C45.7156 13.3965 45.8642 13.8514 46.1613 14.1902C46.4669 14.5202 46.8362 14.6852 47.2691 14.6852C47.702 14.6852 48.0671 14.5202 48.3642 14.1902C48.6698 13.8602 48.8226 13.4099 48.8226 12.8391Z" fill="#DEE0E3"></path><path d="M55.8466 16.5C55.069 16.5 54.3672 16.3476 53.7414 16.0427C53.125 15.7378 52.6366 15.3023 52.2763 14.7361C51.9255 14.1699 51.75 13.5078 51.75 12.75C51.75 12.0009 51.9301 11.3432 52.2905 10.777C52.6509 10.2021 53.144 9.76218 53.7698 9.45731C54.3957 9.15244 55.0974 9 55.875 9C56.6526 9 57.3543 9.15244 57.9801 9.45731C58.606 9.76218 59.0991 10.2021 59.4595 10.777C59.8198 11.3432 60 12.0009 60 12.75C60 13.4991 59.8151 14.1611 59.4453 14.7361C59.0849 15.3023 58.5871 15.7378 57.9517 16.0427C57.3259 16.3476 56.6241 16.5 55.8466 16.5ZM55.8466 14.5662C56.3112 14.5662 56.7047 14.4094 57.0272 14.0958C57.3591 13.7822 57.525 13.3336 57.525 12.75C57.525 12.1664 57.3638 11.7178 57.0414 11.4042C56.7284 11.0906 56.3396 10.9338 55.875 10.9338C55.4009 10.9338 55.0073 11.0906 54.6944 11.4042C54.3815 11.709 54.225 12.1576 54.225 12.75C54.225 13.3336 54.3767 13.7822 54.6802 14.0958C54.9931 14.4094 55.3819 14.5662 55.8466 14.5662Z" fill="#DEE0E3"></path><path d="M61.8806 7.84832C61.548 7.84832 61.2746 7.72659 61.0604 7.48315C60.8534 7.23034 60.75 6.92135 60.75 6.55618C60.75 6.18165 60.8534 5.87266 61.0604 5.62921C61.2746 5.3764 61.548 5.25 61.8806 5.25C62.2057 5.25 62.4717 5.3764 62.6786 5.62921C62.8929 5.87266 63 6.18165 63 6.55618C63 6.92135 62.8929 7.23034 62.6786 7.48315C62.4717 7.72659 62.2057 7.84832 61.8806 7.84832ZM62.8227 8.66294V16.5H60.9274V8.66294H62.8227Z" fill="#DEE0E3"></path><path d="M66.8949 10.1763C67.1282 9.82483 67.4504 9.54083 67.8615 9.32454C68.2725 9.10818 68.7534 9 69.3042 9C69.9486 9 70.5319 9.15775 71.0549 9.47325C71.5779 9.78875 71.9889 10.2395 72.2874 10.8254C72.5953 11.4114 72.75 12.0919 72.75 12.8672C72.75 13.6425 72.5953 14.3275 72.2874 14.9225C71.9889 15.5084 71.5779 15.9636 71.0549 16.2882C70.5319 16.6037 69.9486 16.7614 69.3042 16.7614C68.7623 16.7614 68.282 16.6533 67.8615 16.4369C67.4504 16.2205 67.1282 15.9411 66.8949 15.5986V20.25H64.5V9.10818H66.8949V10.1763ZM70.3129 12.8672C70.3129 12.2903 70.1446 11.8396 69.8082 11.515C69.4813 11.1815 69.0756 11.0147 68.59 11.0147C68.1138 11.0147 67.7075 11.1815 67.3711 11.515C67.0448 11.8485 66.8813 12.3038 66.8813 12.8807C66.8813 13.4577 67.0448 13.9128 67.3711 14.2464C67.7075 14.5799 68.1138 14.7467 68.59 14.7467C69.0661 14.7467 69.4724 14.5799 69.8082 14.2464C70.1446 13.9039 70.3129 13.4441 70.3129 12.8672Z" fill="#DEE0E3"></path><path d="M76.3416 16.5C75.6614 16.5 75.0557 16.3911 74.5245 16.1734C73.9939 15.9556 73.5743 15.6594 73.267 15.2848C72.9598 14.9015 72.7872 14.4747 72.75 14.0043H75.1119C75.1396 14.2569 75.2655 14.4616 75.4888 14.6184C75.7129 14.7752 75.9876 14.8536 76.3138 14.8536C76.6116 14.8536 76.8397 14.8014 76.998 14.6968C77.1659 14.5836 77.2498 14.4399 77.2498 14.2657C77.2498 14.0566 77.1334 13.9042 76.9006 13.8084C76.6678 13.7038 76.2901 13.5906 75.7683 13.4686C75.2093 13.3467 74.7437 13.2204 74.3708 13.0897C73.9986 12.9504 73.6772 12.7369 73.4071 12.4495C73.1364 12.1533 73.0018 11.7569 73.0018 11.2605C73.0018 10.8423 73.1229 10.4634 73.3652 10.1237C73.6163 9.77528 73.9797 9.50084 74.4548 9.30051C74.9393 9.10017 75.5125 9 76.1737 9C77.1516 9 77.9204 9.22647 78.4794 9.67941C79.0479 10.1324 79.3741 10.7334 79.458 11.4826H77.2498C77.2125 11.23 77.0914 11.0296 76.8864 10.8815C76.6908 10.7334 76.4302 10.6594 76.104 10.6594C75.8245 10.6594 75.61 10.7117 75.4611 10.8162C75.3122 10.912 75.2378 11.047 75.2378 11.2212C75.2378 11.4303 75.3542 11.5871 75.587 11.6916C75.8293 11.7962 76.2015 11.9007 76.705 12.0052C77.2823 12.1446 77.7526 12.284 78.116 12.4233C78.4794 12.554 78.7962 12.7717 79.0662 13.0767C79.3457 13.3728 79.4905 13.7735 79.5 14.2788C79.5 14.7056 79.3694 15.0888 79.1082 15.4286C78.8571 15.7596 78.4889 16.0209 78.0044 16.2125C77.5293 16.4042 76.975 16.5 76.3416 16.5Z" fill="#DEE0E3"></path><path d="M87.75 9V16.4202H85.4434V15.4096C85.2095 15.7376 84.8901 16.0035 84.4857 16.2074C84.0898 16.4025 83.6495 16.5 83.1635 16.5C82.588 16.5 82.0798 16.3759 81.6395 16.1276C81.1985 15.8706 80.8569 15.5026 80.6145 15.024C80.3715 14.5452 80.25 13.9823 80.25 13.3351V9H82.5429V13.0292C82.5429 13.5257 82.6736 13.9113 82.9342 14.1862C83.1949 14.461 83.5457 14.5984 83.9866 14.5984C84.436 14.5984 84.7914 14.461 85.0521 14.1862C85.3127 13.9113 85.4434 13.5257 85.4434 13.0292V9H87.75Z" fill="#DEE0E3"></path><path d="M98.9179 9C99.8589 9 100.606 9.27924 101.158 9.83778C101.719 10.3963 102 11.1719 102 12.1649V16.5H99.6919V12.4708C99.6919 11.992 99.5603 11.6241 99.298 11.367C99.0441 11.101 98.6917 10.9681 98.2386 10.9681C97.7862 10.9681 97.4284 11.101 97.1661 11.367C96.9129 11.6241 96.786 11.992 96.786 12.4708V16.5H94.4772V12.4708C94.4772 11.992 94.3463 11.6241 94.0839 11.367C93.8301 11.101 93.477 10.9681 93.0246 10.9681C92.5721 10.9681 92.2144 11.101 91.952 11.367C91.6982 11.6241 91.572 11.992 91.572 12.4708V16.5H89.25V9.07979H91.572V10.0106C91.8074 9.70035 92.1151 9.45653 92.4952 9.27924C92.8753 9.09306 93.3054 9 93.7847 9C94.3555 9 94.8625 9.11965 95.3057 9.35903C95.7582 9.5984 96.1113 9.93972 96.3651 10.383C96.6275 9.97514 96.9852 9.64271 97.4376 9.38563C97.8901 9.12854 98.3839 9 98.9179 9Z" fill="#DEE0E3"></path></svg>